<svg xmlns="http://www.w3.org/2000/svg" width="63" height="63" viewBox="1522.132 1259.614 63 63"><g data-name="Group 46246"><g data-name="Layer 2"><g data-name="Layer 1"><path d="m1570.894 1283.925-27.018 13.757-2.358 1.203-4.85 2.472v2.956l4.817-2.455 4.121-2.1 19.921-10.15a11.855 11.855 0 0 1-17.552 11.891l-.145.077-2.557 1.303a14.48 14.48 0 0 0 22.946-12.825 2.635 2.635 0 0 1 1.43-2.546l1.245-.634v-2.949Z" fill="#fff" fill-rule="evenodd" data-name="Path 34400"/><path d="m1566.063 1280.473-4.121 2.1-19.901 10.136a11.855 11.855 0 0 1 17.535-11.883l2.358-1.201.352-.18a14.48 14.48 0 0 0-22.944 12.823 2.634 2.634 0 0 1-1.431 2.545l-1.244.635v2.958l3.662-1.866 1.186-.606 1.169-.595 20.98-10.69 2.357-1.2 4.873-2.483v-2.957l-4.831 2.464Z" fill="#fff" fill-rule="evenodd" data-name="Path 34399"/></g></g><g data-name="Rectangle 18571"><path d="M12 0h39a12 12 0 0 1 12 12v39a12 12 0 0 1-12 12H12A12 12 0 0 1 0 51V12A12 12 0 0 1 12 0z" fill-rule="evenodd" fill="url(&quot;#a&quot;)" transform="translate(1522.132 1259.614)"/><path d="M1534.132 1259.614h39a12 12 0 0 1 12 12v39a12 12 0 0 1-12 12h-39a12 12 0 0 1-12-12v-39a12 12 0 0 1 12-12z" stroke-linejoin="round" stroke-linecap="round" stroke="rgba(0,0,0,0 )" fill="transparent"/></g></g><defs><linearGradient x1=".13" y1=".111" x2=".802" y2=".958" id="a"><stop stop-color="#0d8ac2" offset="0"/><stop stop-color="#9d29c7" offset="1"/></linearGradient></defs></svg>