<svg xmlns="http://www.w3.org/2000/svg" width="22.145" height="22.143" viewBox="28.096 18.295 22.145 22.143"><g data-name="link-svgrepo-com"><g data-name="Path 37859"><path d="m38.55 34.568-.207-.184a1.364 1.364 0 0 0-1.923.116l-2.204 2.488a1.347 1.347 0 0 1-1.898.114l-.77-.683a1.345 1.345 0 0 1-.115-1.898l4.822-5.44c.4-.451 1.057-.58 1.6-.314.623.306 1.38.158 1.84-.363l.018-.02c.296-.334.42-.778.342-1.218a1.443 1.443 0 0 0-.744-1.023 4.33 4.33 0 0 0-5.301.949l-4.822 5.438a4.35 4.35 0 0 0 .368 6.134l.771.683a4.327 4.327 0 0 0 2.88 1.091 4.338 4.338 0 0 0 3.255-1.46l2.204-2.488a1.361 1.361 0 0 0-.116-1.922Z" fill="#fff" fill-rule="evenodd"/><path d="m38.55 34.568-.207-.184a1.364 1.364 0 0 0-1.923.116l-2.204 2.488a1.347 1.347 0 0 1-1.898.114l-.77-.683a1.345 1.345 0 0 1-.115-1.898l4.822-5.44c.4-.451 1.057-.58 1.6-.314.623.306 1.38.158 1.84-.363l.018-.02c.296-.334.42-.778.342-1.218a1.443 1.443 0 0 0-.744-1.023 4.33 4.33 0 0 0-5.301.949l-4.822 5.438h0a4.35 4.35 0 0 0 .368 6.134l.771.683a4.327 4.327 0 0 0 2.88 1.091 4.338 4.338 0 0 0 3.255-1.46l2.204-2.488a1.361 1.361 0 0 0-.116-1.922Z" stroke-linejoin="round" stroke-linecap="round" stroke="#8522cc" fill="transparent"/></g><g data-name="Path 37858"><path d="m48.78 20.07-.77-.681a4.346 4.346 0 0 0-6.134.369l-2.206 2.488a1.364 1.364 0 0 0 .116 1.922l.207.183c.563.5 1.423.448 1.922-.115l2.206-2.488a1.348 1.348 0 0 1 1.898-.114l.77.682c.555.492.607 1.344.115 1.899l-4.822 5.44a1.343 1.343 0 0 1-1.625.302c-.599-.31-1.33-.174-1.777.331l-.038.043a1.463 1.463 0 0 0-.346 1.243c.083.45.362.828.766 1.04a4.341 4.341 0 0 0 5.265-.97l4.822-5.439a4.351 4.351 0 0 0-.37-6.134Z" fill="#fff" fill-rule="evenodd"/><path d="m48.78 20.07-.77-.681a4.346 4.346 0 0 0-6.134.369l-2.206 2.488a1.364 1.364 0 0 0 .116 1.922l.207.183c.563.5 1.423.448 1.922-.115l2.206-2.488a1.348 1.348 0 0 1 1.898-.114l.77.682c.555.492.607 1.344.115 1.899l-4.822 5.44a1.343 1.343 0 0 1-1.625.302c-.599-.31-1.33-.174-1.777.331l-.038.043a1.463 1.463 0 0 0-.346 1.243c.083.45.362.828.766 1.04a4.341 4.341 0 0 0 5.265-.97l4.822-5.439a4.351 4.351 0 0 0-.37-6.134Z" stroke-linejoin="round" stroke-linecap="round" stroke="#8522cc" fill="transparent"/></g></g></svg>