<svg xmlns="http://www.w3.org/2000/svg" width="19.781" height="21.004" viewBox="0 2.498 19.781 21.004"><g data-name="Group 45853"><g data-name="noun_Home_1859323"><path d="M9.89 3.734c.354-.002.691.15.924.415l7.418 8.345c.201.226.313.519.312.822v6.477a2.475 2.475 0 0 1-2.472 2.473h-3.709v-3.71a2.473 2.473 0 0 0-4.945 0v3.71h-3.71a2.475 2.475 0 0 1-2.472-2.473v-6.477c0-.303.111-.596.313-.822L8.966 4.15c.234-.265.57-.417.924-.415m0-1.236c-.706-.001-1.38.3-1.848.83L.625 11.673A2.473 2.473 0 0 0 0 13.316v6.477a3.709 3.709 0 0 0 3.709 3.71h3.709c.683 0 1.236-.554 1.236-1.237v-3.71a1.236 1.236 0 0 1 2.473 0v3.71c0 .683.553 1.236 1.236 1.236h3.709a3.709 3.709 0 0 0 3.709-3.709v-6.477c0-.606-.222-1.19-.625-1.643l-7.418-8.345a2.462 2.462 0 0 0-1.848-.83Z" fill-rule="evenodd" data-name="Path 7"/><path d="m7.812 22.493.174-4.345.917-1.485h1.342l1.249.742.284 1.438v3.65l1.058.379h4.774l.994-1.343.459-1.706v-5.926l-.459-1.753-4.913-5.325-2.923-3.16-1.407-.253L7.812 4.56l-4.25 5.198-2.56 2.844-.252 2.386v4.092l.253 1.738 1.264 1.422 1.296.632 4.25-.38Z" fill-rule="evenodd" data-name="Path 34376"/></g></g></svg>