<svg xmlns="http://www.w3.org/2000/svg" width="25.706" height="25.706" viewBox="522.147 353.146 25.706 25.706"><g data-name="dollar-svgrepo-com"><path d="M534.022 373.467v-1.739a7.47 7.47 0 0 1-3.134-.786l.554-2.142c.94.514 1.99.79 3.061.805 1.051 0 1.77-.403 1.77-1.134 0-.696-.59-1.136-1.954-1.594-1.973-.659-3.32-1.574-3.32-3.349 0-1.61 1.144-2.873 3.117-3.258v-1.74h1.806v1.612c.923.014 1.834.22 2.673.603l-.534 2.068a6.147 6.147 0 0 0-2.656-.623c-1.198 0-1.585.513-1.585 1.026 0 .603.645.988 2.213 1.573 2.193.77 3.079 1.775 3.079 3.424 0 1.63-1.162 3.02-3.282 3.386v1.866l-1.808.002Z" fill="#fff" fill-rule="evenodd" data-name="Path 37881"/><path d="M535 353.86c6.704 0 12.138 5.435 12.138 12.139s-5.434 12.138-12.138 12.138S522.86 372.703 522.86 366c.008-6.701 5.438-12.131 12.139-12.139m0-.714c-7.099 0-12.853 5.754-12.853 12.853 0 7.098 5.754 12.853 12.853 12.853 7.098 0 12.853-5.755 12.853-12.853 0-7.099-5.755-12.853-12.853-12.853Z" fill="#fff" fill-rule="evenodd" data-name="Path 37880"/></g></svg>